<?xml version="1.0" encoding="UTF-8" standalone="no"?>
<svg
   xmlns:dc="http://purl.org/dc/elements/1.1/"
   xmlns:cc="http://creativecommons.org/ns#"
   xmlns:rdf="http://www.w3.org/1999/02/22-rdf-syntax-ns#"
   xmlns:svg="http://www.w3.org/2000/svg"
   xmlns="http://www.w3.org/2000/svg"
   id="svg8"
   version="1.1"
   viewBox="0 0 270.93333 270.93333"
   height="1024"
   width="1024">
  <defs
     id="defs2" />
  <metadata
     id="metadata5">
    <rdf:RDF>
      <cc:Work
         rdf:about="">
        <dc:format>image/svg+xml</dc:format>
        <dc:type
           rdf:resource="http://purl.org/dc/dcmitype/StillImage" />
        <dc:title></dc:title>
      </cc:Work>
    </rdf:RDF>
  </metadata>
  <g
     transform="translate(0,-26.066657)"
     id="layer1">
    <path
       id="path4550"
       d="m 154.59226,111.79166 -16.00784,12.74054 c 13.68219,8.24221 37.53376,19.02256 37.76953,34.95235 -0.41958,16.90423 -15.65821,32.66847 -15.65821,32.66847 0,0 24.71023,-25.30669 21.9161,-40.3577 -2.9067,-15.6574 -35.64805,-28.30927 -35.64805,-28.30927 l 7.39463,-4.81074 z"
       style="fill:#301010;fill-opacity:1;stroke:none;stroke-width:0.26458332px;stroke-linecap:butt;stroke-linejoin:miter;stroke-opacity:1" />
    <path
       id="path4548"
       d="m 146.40648,183.68773 c -0.90674,-4.26463 -20.37113,-14.86533 -32.5708,-11.19384 -13.54795,4.07726 -21.633651,19.01618 -15.939848,28.87814 11.213428,18.39783 45.291728,16.55603 56.024328,2.35956 5.05537,-7.09036 4.45186,-27.68397 4.45186,-27.68397 l -3.77976,-64.25596 c 0,0 -3.54393,16.97206 -3.30558,25.55956 0.6787,24.45279 2.87401,42.79533 -1.52426,61.80666 -2.0132,8.04074 -23.62299,15.95674 -35.21434,4.56816 -8.25696,-9.06938 -4.0411,-20.69119 7.88934,-23.34838 12.70332,-2.82933 25.04763,8.38289 23.96906,3.31007 z"
       style="fill:#903030;fill-opacity:1;stroke:none;stroke-width:0.26458332px;stroke-linecap:butt;stroke-linejoin:miter;stroke-opacity:1" />
  </g>
</svg>
