<?xml version="1.0" encoding="UTF-8" standalone="no"?>
<svg
   xmlns:dc="http://purl.org/dc/elements/1.1/"
   xmlns:cc="http://creativecommons.org/ns#"
   xmlns:rdf="http://www.w3.org/1999/02/22-rdf-syntax-ns#"
   xmlns:svg="http://www.w3.org/2000/svg"
   xmlns="http://www.w3.org/2000/svg"
   id="svg8"
   version="1.1"
   viewBox="0 0 270.93333 270.93333"
   height="1024"
   width="1024">
  <defs
     id="defs2" />
  <metadata
     id="metadata5">
    <rdf:RDF>
      <cc:Work
         rdf:about="">
        <dc:format>image/svg+xml</dc:format>
        <dc:type
           rdf:resource="http://purl.org/dc/dcmitype/StillImage" />
        <dc:title></dc:title>
      </cc:Work>
    </rdf:RDF>
  </metadata>
  <g
     transform="translate(0,-26.066657)"
     id="layer1">
    <path
       id="path4550"
       d="m 168.59532,49.805759 -32.73159,26.050863 c 27.97627,16.853028 76.7461,38.895848 77.22818,71.467848 -0.85792,34.56444 -32.01667,66.79793 -32.01667,66.79793 0,0 50.52555,-51.74514 44.81232,-82.52027 -5.94339,-32.01504 -72.89035,-57.884594 -72.89035,-57.884594 l 15.11996,-9.836626 z"
       style="fill:#301010;fill-opacity:1;stroke:none;stroke-width:0.54099935px;stroke-linecap:butt;stroke-linejoin:miter;stroke-opacity:1" />
    <path
       id="path4548"
       d="m 151.85767,196.81324 c -1.85403,-8.71998 -41.65331,-30.39546 -66.598238,-22.88829 -27.701792,8.33686 -44.234803,38.88281 -32.592558,59.04777 22.928342,37.61845 92.608996,33.85248 114.554176,4.82464 10.33683,-14.49781 9.10282,-56.60602 9.10282,-56.60602 L 168.59532,49.805759 c 0,0 -7.24636,34.703145 -6.759,52.262201 1.38775,49.99916 5.87655,87.50455 -3.11669,126.37744 -4.11644,16.44108 -48.30245,32.6271 -72.003539,9.34061 -16.883188,-18.54436 -8.262926,-42.30773 16.131519,-47.74094 25.97475,-5.7852 51.21543,17.14067 49.01006,6.76817 z"
       style="fill:#903030;fill-opacity:1;stroke:none;stroke-width:0.54099935px;stroke-linecap:butt;stroke-linejoin:miter;stroke-opacity:1" />
  </g>
</svg>
